{
  "accessors": [
    {
      "bufferView": 2,
      "componentType": 5126,
      "count": 6984,
      "max": [
        7.902018070220947,
        7.899272918701172,
        41.91585922241211
      ],
      "min": [
        -7.896522045135498,
        -7.8992719650268555,
        9.368169784545898
      ],
      "type": "VEC3"
    },
    {
      "bufferView": 2,
      "byteOffset": 83808,
      "componentType": 5126,
      "count": 6984,
      "max": [
        1.0,
        1.0,
        1.0
      ],
      "min": [
        -1.0,
        -1.0,
        -1.0
      ],
      "type": "VEC3"
    },
    {
      "bufferView": 1,
      "componentType": 5126,
      "count": 6984,
      "max": [
        0.8161050081253052,
        0.993930995464325
      ],
      "min": [
        0.00725100003182888,
        0.5702369809150696
      ],
      "type": "VEC2"
    },
    {
      "bufferView": 0,
      "componentType": 5125,
      "count": 39840,
      "type": "SCALAR"
    },
    {
      "bufferView": 2,
      "byteOffset": 167616,
      "componentType": 5126,
      "count": 9971,
      "max": [
        11.444100379943848,
        10.071220397949219,
        42.40898895263672
      ],
      "min": [
        -6.325987815856934,
        -10.09451961517334,
        8.877638816833496
      ],
      "type": "VEC3"
    },
    {
      "bufferView": 2,
      "byteOffset": 287268,
      "componentType": 5126,
      "count": 9971,
      "max": [
        1.0,
        1.0,
        1.0
      ],
      "min": [
        -1.0,
        -1.0,
        -1.0
      ],
      "type": "VEC3"
    },
    {
      "bufferView": 3,
      "componentType": 5126,
      "count": 9971,
      "max": [
        0.9997420907020569,
        0.9986380338668823,
        1.0,
        1.0
      ],
      "min": [
        -0.999741792678833,
        -0.9971132874488831,
        -1.0,
        1.0
      ],
      "type": "VEC4"
    },
    {
      "bufferView": 1,
      "byteOffset": 55872,
      "componentType": 5126,
      "count": 9971,
      "max": [
        0.6265519857406616,
        0.15848200023174286
      ],
      "min": [
        0.0019529999699443579,
        0.0019529999699443579
      ],
      "type": "VEC2"
    },
    {
      "bufferView": 0,
      "byteOffset": 159360,
      "componentType": 5125,
      "count": 36432,
      "type": "SCALAR"
    },
    {
      "bufferView": 2,
      "byteOffset": 406920,
      "componentType": 5126,
      "count": 9965,
      "max": [
        13.220290184020996,
        13.217550277709961,
        42.223140716552734
      ],
      "min": [
        -13.214790344238281,
        -13.21753978729248,
        6.2337870597839355
      ],
      "type": "VEC3"
    },
    {
      "bufferView": 2,
      "byteOffset": 526500,
      "componentType": 5126,
      "count": 9965,
      "max": [
        1.0,
        1.0,
        1.0
      ],
      "min": [
        -1.0,
        -1.0,
        -1.0
      ],
      "type": "VEC3"
    },
    {
      "bufferView": 3,
      "byteOffset": 159536,
      "componentType": 5126,
      "count": 9965,
      "max": [
        1.0,
        1.0,
        0.999249279499054,
        1.0
      ],
      "min": [
        -1.0,
        -1.0,
        -1.0,
        1.0
      ],
      "type": "VEC4"
    },
    {
      "bufferView": 1,
      "byteOffset": 135640,
      "componentType": 5126,
      "count": 9965,
      "max": [
        0.9531090259552002,
        0.992497980594635
      ],
      "min": [
        0.0019529999699443579,
        0.0019529999699443579
      ],
      "type": "VEC2"
    },
    {
      "bufferView": 0,
      "byteOffset": 305088,
      "componentType": 5125,
      "count": 48384,
      "type": "SCALAR"
    },
    {
      "bufferView": 2,
      "byteOffset": 646080,
      "componentType": 5126,
      "count": 9986,
      "max": [
        7.16444206237793,
        7.161697864532471,
        33.46316146850586
      ],
      "min": [
        -7.158945083618164,
        -7.1616950035095215,
        9.787994384765625
      ],
      "type": "VEC3"
    },
    {
      "bufferView": 2,
      "byteOffset": 765912,
      "componentType": 5126,
      "count": 9986,
      "max": [
        1.0,
        1.0,
        1.0
      ],
      "min": [
        -1.0,
        -1.0,
        -1.0
      ],
      "type": "VEC3"
    },
    {
      "bufferView": 3,
      "byteOffset": 318976,
      "componentType": 5126,
      "count": 9986,
      "max": [
        1.0,
        1.0,
        0.9997093081474304,
        1.0
      ],
      "min": [
        -0.9999998807907104,
        -1.0,
        -0.9999403357505798,
        -1.0
      ],
      "type": "VEC4"
    },
    {
      "bufferView": 1,
      "byteOffset": 215360,
      "componentType": 5126,
      "count": 9986,
      "max": [
        0.9887269735336304,
        0.31115201115608215
      ],
      "min": [
        0.0019529999699443579,
        0.0019529999699443579
      ],
      "type": "VEC2"
    },
    {
      "bufferView": 0,
      "byteOffset": 498624,
      "componentType": 5125,
      "count": 45192,
      "type": "SCALAR"
    },
    {
      "bufferView": 2,
      "byteOffset": 885744,
      "componentType": 5126,
      "count": 9340,
      "max": [
        13.220290184020996,
        13.217550277709961,
        45.103050231933594
      ],
      "min": [
        -13.214790344238281,
        -13.21753978729248,
        15.025405883789063
      ],
      "type": "VEC3"
    },
    {
      "bufferView": 2,
      "byteOffset": 997824,
      "componentType": 5126,
      "count": 9340,
      "max": [
        1.0,
        1.0,
        1.0
      ],
      "min": [
        -1.0,
        -1.0,
        -1.0
      ],
      "type": "VEC3"
    },
    {
      "bufferView": 3,
      "byteOffset": 478752,
      "componentType": 5126,
      "count": 9340,
      "max": [
        0.9997419714927673,
        0.993086576461792,
        0.9997091889381409,
        1.0
      ],
      "min": [
        -0.999742865562439,
        -0.992892324924469,
        -1.0,
        1.0
      ],
      "type": "VEC4"
    },
    {
      "bufferView": 1,
      "byteOffset": 295248,
      "componentType": 5126,
      "count": 9340,
      "max": [
        0.9895489811897278,
        0.9919360280036926
      ],
      "min": [
        0.0019529999699443579,
        0.0019529999699443579
      ],
      "type": "VEC2"
    },
    {
      "bufferView": 0,
      "byteOffset": 679392,
      "componentType": 5125,
      "count": 37152,
      "type": "SCALAR"
    }
  ],
  "asset": {
    "extras": {
      "author": "• Less • (https://sketchfab.com/lessart)",
      "license": "CC-BY-4.0 (http://creativecommons.org/licenses/by/4.0/)",
      "source": "https://sketchfab.com/3d-models/hourglass-a453e90d47b74260b5e5ccd5a965fe3e",
      "title": "Hourglass"
    },
    "generator": "Sketchfab-11.53.2",
    "version": "2.0"
  },
  "bufferViews": [
    {
      "buffer": 0,
      "byteLength": 828000,
      "name": "floatBufferViews",
      "target": 34963
    },
    {
      "buffer": 0,
      "byteLength": 369968,
      "byteOffset": 828000,
      "byteStride": 8,
      "name": "floatBufferViews",
      "target": 34962
    },
    {
      "buffer": 0,
      "byteLength": 1109904,
      "byteOffset": 1197968,
      "byteStride": 12,
      "name": "floatBufferViews",
      "target": 34962
    },
    {
      "buffer": 0,
      "byteLength": 628192,
      "byteOffset": 2307872,
      "byteStride": 16,
      "name": "floatBufferViews",
      "target": 34962
    }
  ],
  "buffers": [
    {
      "byteLength": 2936064,
      "uri": "scene.bin"
    }
  ],
  "extensionsUsed": [
    "KHR_materials_transmission"
  ],
  "images": [
    {
      "uri": "textures/aiStandardSurface1SG_baseColor.png"
    },
    {
      "uri": "textures/aiStandardSurface1SG_metallicRoughness.png"
    },
    {
      "uri": "textures/aiStandardSurface1SG_normal.png"
    }
  ],
  "materials": [
    {
      "doubleSided": true,
      "name": "aiStandardSurface1SG",
      "normalTexture": {
        "index": 2
      },
      "pbrMetallicRoughness": {
        "baseColorTexture": {
          "index": 0
        },
        "metallicRoughnessTexture": {
          "index": 1
        }
      }
    },
    {
      "alphaMode": "BLEND",
      "doubleSided": true,
      "extensions": {
        "KHR_materials_transmission": {
          "transmissionFactor": 0.7550666431550912
        }
      },
      "name": "aiStandardSurface2SG",
      "pbrMetallicRoughness": {
        "baseColorFactor": [
          0.14156349949531188,
          0.14156349949531188,
          0.14156349949531188,
          0.25
        ],
        "roughnessFactor": 0.0
      }
    }
  ],
  "meshes": [
    {
      "name": "Object_0",
      "primitives": [
        {
          "attributes": {
            "NORMAL": 1,
            "POSITION": 0,
            "TEXCOORD_0": 2
          },
          "indices": 3,
          "material": 1,
          "mode": 4
        }
      ]
    },
    {
      "name": "Object_1",
      "primitives": [
        {
          "attributes": {
            "NORMAL": 5,
            "POSITION": 4,
            "TANGENT": 6,
            "TEXCOORD_0": 7
          },
          "indices": 8,
          "material": 0,
          "mode": 4
        }
      ]
    },
    {
      "name": "Object_2",
      "primitives": [
        {
          "attributes": {
            "NORMAL": 10,
            "POSITION": 9,
            "TANGENT": 11,
            "TEXCOORD_0": 12
          },
          "indices": 13,
          "material": 0,
          "mode": 4
        }
      ]
    },
    {
      "name": "Object_3",
      "primitives": [
        {
          "attributes": {
            "NORMAL": 15,
            "POSITION": 14,
            "TANGENT": 16,
            "TEXCOORD_0": 17
          },
          "indices": 18,
          "material": 0,
          "mode": 4
        }
      ]
    },
    {
      "name": "Object_4",
      "primitives": [
        {
          "attributes": {
            "NORMAL": 20,
            "POSITION": 19,
            "TANGENT": 21,
            "TEXCOORD_0": 22
          },
          "indices": 23,
          "material": 0,
          "mode": 4
        }
      ]
    }
  ],
  "nodes": [
    {
      "children": [
        1
      ],
      "matrix": [
        1.0,
        0.0,
        0.0,
        0.0,
        0.0,
        2.220446049250313e-16,
        -1.0,
        0.0,
        0.0,
        1.0,
        2.220446049250313e-16,
        0.0,
        0.0,
        0.0,
        0.0,
        1.0
      ],
      "name": "Sketchfab_model"
    },
    {
      "children": [
        2,
        3,
        4,
        5,
        6
      ],
      "name": "Hourglass.obj.cleaner.materialmerger.gles"
    },
    {
      "mesh": 0,
      "name": "Object_2"
    },
    {
      "mesh": 1,
      "name": "Object_3"
    },
    {
      "mesh": 2,
      "name": "Object_4"
    },
    {
      "mesh": 3,
      "name": "Object_5"
    },
    {
      "mesh": 4,
      "name": "Object_6"
    }
  ],
  "samplers": [
    {
      "magFilter": 9729,
      "minFilter": 9987,
      "wrapS": 10497,
      "wrapT": 10497
    }
  ],
  "scene": 0,
  "scenes": [
    {
      "name": "Sketchfab_Scene",
      "nodes": [
        0
      ]
    }
  ],
  "textures": [
    {
      "sampler": 0,
      "source": 0
    },
    {
      "sampler": 0,
      "source": 1
    },
    {
      "sampler": 0,
      "source": 2
    }
  ]
}
