{
  "accessors": [
    {
      "bufferView": 2,
      "componentType": 5126,
      "count": 4390,
      "max": [
        7.2515954971313477,
        2.9404277801513672,
        24.724754333496094
      ],
      "min": [
        -4.9863014221191406,
        -5.9769697189331055,
        -0.23286914825439453
      ],
      "type": "VEC3"
    },
    {
      "bufferView": 2,
      "byteOffset": 52680,
      "componentType": 5126,
      "count": 4390,
      "max": [
        0.99991601705551147,
        0.99996060132980347,
        0.99812942743301392
      ],
      "min": [
        -0.99964088201522827,
        -0.9999992847442627,
        -0.95675671100616455
      ],
      "type": "VEC3"
    },
    {
      "bufferView": 3,
      "componentType": 5126,
      "count": 4390,
      "max": [
        0.99632495641708374,
        0.99925768375396729,
        0.99960768222808838,
        1
      ],
      "min": [
        -0.99993473291397095,
        -0.99997305870056152,
        -0.98974931240081787,
        1
      ],
      "type": "VEC4"
    },
    {
      "bufferView": 1,
      "componentType": 5126,
      "count": 4390,
      "max": [
        0.98470002412796021,
        0.98269999027252197
      ],
      "min": [
        0.014000000432133675,
        0.014000058174133301
      ],
      "type": "VEC2"
    },
    {
      "bufferView": 0,
      "componentType": 5125,
      "count": 24246,
      "max": [
        4389
      ],
      "min": [
        0
      ],
      "type": "SCALAR"
    }
  ],
  "asset": {
    "extras": {
      "author": "deep3dstudio (https://sketchfab.com/deep3dstudio)",
      "license": "CC-BY-NC-4.0 (http://creativecommons.org/licenses/by-nc/4.0/)",
      "source": "https://sketchfab.com/3d-models/female-hand-3e9b8ad1942048e3a267d92fb1124d46",
      "title": "Female hand"
    },
    "generator": "Sketchfab-9.7.0",
    "version": "2.0"
  },
  "bufferViews": [
    {
      "buffer": 0,
      "byteLength": 96984,
      "byteOffset": 0,
      "name": "floatBufferViews",
      "target": 34963
    },
    {
      "buffer": 0,
      "byteLength": 35120,
      "byteOffset": 96984,
      "byteStride": 8,
      "name": "floatBufferViews",
      "target": 34962
    },
    {
      "buffer": 0,
      "byteLength": 105360,
      "byteOffset": 132104,
      "byteStride": 12,
      "name": "floatBufferViews",
      "target": 34962
    },
    {
      "buffer": 0,
      "byteLength": 70240,
      "byteOffset": 237464,
      "byteStride": 16,
      "name": "floatBufferViews",
      "target": 34962
    }
  ],
  "buffers": [
    {
      "byteLength": 307704,
      "uri": "scene.bin"
    }
  ],
  "extensionsRequired": [
    "KHR_materials_pbrSpecularGlossiness"
  ],
  "extensionsUsed": [
    "KHR_materials_pbrSpecularGlossiness"
  ],
  "images": [
    {
      "uri": "textures/default_diffuse.png"
    },
    {
      "uri": "textures/default_specularGlossiness.png"
    },
    {
      "uri": "textures/default_normal.png"
    },
    {
      "uri": "textures/default_occlusion.png"
    }
  ],
  "materials": [
    {
      "doubleSided": true,
      "extensions": {
        "KHR_materials_pbrSpecularGlossiness": {
          "diffuseFactor": [
            1,
            1,
            1,
            1
          ],
          "diffuseTexture": {
            "index": 0,
            "texCoord": 0
          },
          "glossinessFactor": 1,
          "specularFactor": [
            0.11062726317901242,
            0.11062726317901242,
            0.11062726317901242
          ],
          "specularGlossinessTexture": {
            "index": 1,
            "texCoord": 0
          }
        }
      },
      "name": "default",
      "normalTexture": {
        "index": 2,
        "scale": 1,
        "texCoord": 0
      },
      "occlusionTexture": {
        "index": 3,
        "strength": 0.56878810975609762,
        "texCoord": 0
      }
    }
  ],
  "meshes": [
    {
      "primitives": [
        {
          "attributes": {
            "NORMAL": 1,
            "POSITION": 0,
            "TANGENT": 2,
            "TEXCOORD_0": 3
          },
          "indices": 4,
          "material": 0,
          "mode": 4
        }
      ]
    }
  ],
  "nodes": [
    {
      "children": [
        1
      ],
      "name": "RootNode (gltf orientation matrix)",
      "rotation": [
        -0.70710678118654746,
        -0,
        -0,
        0.70710678118654757
      ]
    },
    {
      "children": [
        2
      ],
      "name": "RootNode (model correction matrix)"
    },
    {
      "children": [
        3
      ],
      "name": "038F_05SET_04SHOT.OBJ.cleaner.materialmerger.gles"
    },
    {
      "mesh": 0,
      "name": ""
    }
  ],
  "samplers": [
    {
      "magFilter": 9729,
      "minFilter": 9987,
      "wrapS": 10497,
      "wrapT": 10497
    }
  ],
  "scene": 0,
  "scenes": [
    {
      "name": "OSG_Scene",
      "nodes": [
        0
      ]
    }
  ],
  "textures": [
    {
      "sampler": 0,
      "source": 0
    },
    {
      "sampler": 0,
      "source": 1
    },
    {
      "sampler": 0,
      "source": 2
    },
    {
      "sampler": 0,
      "source": 3
    }
  ]
}

